<?xml version="1.0" standalone="no"?><!DOCTYPE svg PUBLIC "-//W3C//DTD SVG 1.1//EN" "http://www.w3.org/Graphics/SVG/1.1/DTD/svg11.dtd"><svg t="1628249255250" class="icon" viewBox="0 0 1024 1024" version="1.1" xmlns="http://www.w3.org/2000/svg" p-id="3398" xmlns:xlink="http://www.w3.org/1999/xlink" width="200" height="200"><defs><style type="text/css"></style></defs><path d="M442 927.3c-40.8 0-85.1-18.6-121-54.6L152.6 704.3C89.8 641.5 79.8 553 129.9 502.9l365.2-365.2c19.3-19.3 46.2-30.5 75.7-31.6l243.7-8.7c28.1-1 57.1 11.3 79.6 33.8 22.5 22.5 34.8 51.5 33.8 79.6l-8.7 243.7c-1.1 29.5-12.3 56.4-31.6 75.7L522.4 895.4c-21.4 21.5-49.9 31.9-80.4 31.9z m375.8-747h-0.3L573.8 189c-6 0.2-14.3 1.7-20 7.3L188.6 561.5c-14.5 14.5-7.9 53.6 22.7 84.1L379.7 814c30.6 30.6 69.7 37.2 84.1 22.7L829 471.5c5.7-5.7 7.1-14 7.3-20l8.7-243.7c0.1-3.9-2.8-11.3-9.5-18-6.6-6.6-13.7-9.5-17.7-9.5z" fill="#f36c03" p-id="3399"></path><path d="M704.7 325.4m-46.1 0a46.1 46.1 0 1 0 92.2 0 46.1 46.1 0 1 0-92.2 0Z" fill="#f36c03" p-id="3400"></path></svg>