<?xml version="1.0" standalone="no"?><!DOCTYPE svg PUBLIC "-//W3C//DTD SVG 1.1//EN" "http://www.w3.org/Graphics/SVG/1.1/DTD/svg11.dtd"><svg t="1628238852583" class="icon" viewBox="0 0 1024 1024" version="1.1" xmlns="http://www.w3.org/2000/svg" p-id="2520" xmlns:xlink="http://www.w3.org/1999/xlink" width="200" height="200"><defs><style type="text/css"></style></defs><path d="M354.91 245.8h-71.28a10.88 10.88 0 0 1 0-21.75h71.28a10.88 10.88 0 0 1 0 21.75z" fill="#EF7D30" p-id="2521"></path><path d="M319.27 281.44a10.88 10.88 0 0 1-10.88-10.87v-71.28a10.88 10.88 0 0 1 21.75 0v71.28a10.87 10.87 0 0 1-10.87 10.87zM406.36 225a26.37 26.37 0 1 1 26.37-26.37A26.4 26.4 0 0 1 406.36 225z m0-36.43a10.06 10.06 0 1 0 10.06 10.06 10.07 10.07 0 0 0-10.06-10.05zM231.38 492.13a26.37 26.37 0 1 1 26.37-26.37 26.4 26.4 0 0 1-26.37 26.37z m0-36.43a10.06 10.06 0 1 0 10.06 10.06 10.07 10.07 0 0 0-10.06-10.06zM723.57 714.68h-71.28a10.88 10.88 0 0 1 0-21.75h71.28a10.88 10.88 0 0 1 0 21.75z" fill="#EF7D30" p-id="2522"></path><path d="M687.93 750.32a10.88 10.88 0 0 1-10.88-10.88v-71.28a10.88 10.88 0 0 1 21.75 0v71.28a10.88 10.88 0 0 1-10.87 10.88zM774.52 300.75a26.37 26.37 0 1 1 26.37-26.37 26.4 26.4 0 0 1-26.37 26.37z m0-36.43a10.06 10.06 0 1 0 10.06 10.06 10.07 10.07 0 0 0-10.06-10.06zM517.18 558.46c-39.11 0-81.18-11.71-81.18-37.46s42.1-37.42 81.21-37.42 81.21 11.71 81.21 37.42-42.13 37.46-81.24 37.46z m0-53.11c-38.47 0-58.4 11.45-59.47 15.79 1.07 4.13 21 15.57 59.47 15.57 38.15 0 58.06-11.25 59.44-15.68-1.39-4.43-21.3-15.68-59.44-15.68z m59.47 15.79z" fill="#EF7D30" p-id="2523"></path><path d="M517.18 505.35c-39.11 0-81.21-11.71-81.21-37.42s42.1-37.43 81.21-37.43 81.21 11.71 81.21 37.43-42.1 37.42-81.21 37.42z m0-53.1c-38.48 0-58.4 11.44-59.47 15.79 1.07 4.13 21 15.57 59.47 15.57 38.14 0 58.05-11.25 59.44-15.68-1.38-4.43-21.29-15.68-59.44-15.68zM576.65 468z" fill="#EF7D30" p-id="2524"></path><path d="M517.18 452.25c-39.11 0-81.21-11.71-81.21-37.43s42.1-37.42 81.21-37.42 81.21 11.71 81.21 37.42-42.1 37.43-81.21 37.43z m0-53.11c-38.48 0-58.4 11.44-59.47 15.79 1.07 4.13 21 15.57 59.47 15.57 38.14 0 58.05-11.25 59.44-15.68-1.38-4.43-21.29-15.68-59.44-15.68z m59.47 15.79z" fill="#EF7D30" p-id="2525"></path><path d="M517.18 809.92A86 86 0 0 1 431.26 724V608.56a10.87 10.87 0 0 1 21.74 0V724a64.18 64.18 0 1 0 128.35 0V608.56a10.88 10.88 0 0 1 21.75 0V724a86 86 0 0 1-85.92 85.92z" fill="#3A3A3A" p-id="2526"></path><path d="M531.93 862.11h-29.51A28.17 28.17 0 0 1 474.29 834v-40.22a10.87 10.87 0 1 1 21.74 0V834a6.4 6.4 0 0 0 6.39 6.39h29.51a6.4 6.4 0 0 0 6.39-6.39v-40.22a10.88 10.88 0 0 1 21.75 0V834a28.17 28.17 0 0 1-28.14 28.11z" fill="#3A3A3A" p-id="2527"></path><path d="M517.18 694.22a10.87 10.87 0 0 1-10.87-10.87v-63.07l72.24-105.4a10.87 10.87 0 1 1 17.93 12.3L528.05 627v56.34a10.87 10.87 0 0 1-10.87 10.88z" fill="#EF7D30" p-id="2528"></path><path d="M442.47 619.44a11 11 0 0 1-4.23-0.86 202.5 202.5 0 0 1-123.83-186.83c0-111.81 91-202.77 202.77-202.77S720 319.94 720 431.75a202.54 202.54 0 0 1-123.52 186.67 10.87 10.87 0 0 1-8.51-20A180.84 180.84 0 0 0 698.2 431.75c0-99.82-81.21-181-181-181s-181 81.2-181 181a180.77 180.77 0 0 0 110.56 166.8 10.88 10.88 0 0 1-4.25 20.89zM592.23 694.22h-150.1a10.87 10.87 0 0 1 0-21.74h150.1a10.87 10.87 0 0 1 0 21.74z" fill="#3A3A3A" p-id="2529"></path></svg>